<svg width="16" height="16" viewBox="0 0 16 16" fill="none" xmlns="http://www.w3.org/2000/svg">
<path d="M10.6665 5.33333C11.7274 5.33333 12.7448 5.75476 13.4949 6.50491C14.2451 7.25505 14.6665 8.27247 14.6665 9.33333V14H11.9998V9.33333C11.9998 8.97971 11.8594 8.64057 11.6093 8.39053C11.3593 8.14048 11.0201 8 10.6665 8C10.3129 8 9.97374 8.14048 9.7237 8.39053C9.47365 8.64057 9.33317 8.97971 9.33317 9.33333V14H6.6665V9.33333C6.6665 8.27247 7.08793 7.25505 7.83808 6.50491C8.58822 5.75476 9.60564 5.33333 10.6665 5.33333V5.33333Z" stroke="#95999D" stroke-width="1.5" stroke-linecap="round" stroke-linejoin="round"/>
<path d="M4.00016 6H1.3335V14H4.00016V6Z" stroke="#95999D" stroke-width="1.5" stroke-linecap="round" stroke-linejoin="round"/>
<path d="M2.66683 4C3.40321 4 4.00016 3.40305 4.00016 2.66667C4.00016 1.93029 3.40321 1.33333 2.66683 1.33333C1.93045 1.33333 1.3335 1.93029 1.3335 2.66667C1.3335 3.40305 1.93045 4 2.66683 4Z" stroke="#95999D" stroke-width="1.5" stroke-linecap="round" stroke-linejoin="round"/>
</svg>
