<svg width="24" height="24" viewBox="0 0 24 24" fill="none" xmlns="http://www.w3.org/2000/svg">
<path d="M17.6 8.88806H6.4C5.6268 8.88806 5 9.4637 5 10.1738V16.6023C5 17.3124 5.6268 17.8881 6.4 17.8881H17.6C18.3732 17.8881 19 17.3124 19 16.6023V10.1738C19 9.4637 18.3732 8.88806 17.6 8.88806Z" stroke="#CACCCE" stroke-width="1.5" stroke-linecap="round" stroke-linejoin="round"/>
<path d="M15 8.88806V7.22139C15 6.86777 14.842 6.52863 14.5607 6.27859C14.2794 6.02854 13.8978 5.88806 13.5 5.88806H10.5C10.1022 5.88806 9.72064 6.02854 9.43934 6.27859C9.15804 6.52863 9 6.86777 9 7.22139V8.88806" stroke="#CACCCE" stroke-width="1.5" stroke-linecap="round" stroke-linejoin="round"/>
</svg>
