<svg width="30" height="30" viewBox="0 0 30 30" fill="none" xmlns="http://www.w3.org/2000/svg">
<g clip-path="url(#clip0_661_7758)">
<path d="M21.0001 0.599976H9.0001C4.36091 0.599976 0.600098 4.36078 0.600098 8.99998V21C0.600098 25.6392 4.36091 29.4 9.0001 29.4H21.0001C25.6393 29.4 29.4001 25.6392 29.4001 21V8.99998C29.4001 4.36078 25.6393 0.599976 21.0001 0.599976Z" stroke="#95999D" stroke-width="1.2"/>
<path fill-rule="evenodd" clip-rule="evenodd" d="M10.026 6.03304V7.02604H8.04004V14.97H12.012V16.956H15.984V18.942H17.97V22.914H12.012V20.928H10.026V18.942H8.04004V24.9H19.956V22.914H21.942V14.97H17.97V12.984H13.998V10.998H12.012V7.02604H17.97V9.01204H19.956V10.998H21.942V5.04004H10.026V6.03304Z" fill="#95999D"/>
</g>
<defs>
<clipPath id="clip0_661_7758">
<rect width="30" height="30" fill="white"/>
</clipPath>
</defs>
</svg>
