<svg width="32" height="32" viewBox="0 0 32 32" fill="none" xmlns="http://www.w3.org/2000/svg">
<path d="M22.25 1H9.75C4.91751 1 1 4.91751 1 9.75V22.25C1 27.0825 4.91751 31 9.75 31H22.25C27.0825 31 31 27.0825 31 22.25V9.75C31 4.91751 27.0825 1 22.25 1Z" stroke="#62666A" stroke-width="1.2"/>
<path fill-rule="evenodd" clip-rule="evenodd" d="M10.986 6.993V7.986H9V15.93H12.972V17.916H16.944V19.902H18.93V23.874H12.972V21.888H10.986V19.902H9V25.86H20.916V23.874H22.902V15.93H18.93V13.944H14.958V11.958H12.972V7.986H18.93V9.972H20.916V11.958H22.902V6H10.986V6.993Z" fill="#62666A"/>
</svg>
