<svg width="13" height="12" viewBox="0 0 13 12" fill="none" xmlns="http://www.w3.org/2000/svg">
<path d="M11.4961 5C11.4961 8.5 6.99609 11.5 6.99609 11.5C6.99609 11.5 2.49609 8.5 2.49609 5C2.49609 3.80653 2.9702 2.66193 3.81411 1.81802C4.65803 0.974106 5.80262 0.5 6.99609 0.5C8.18957 0.5 9.33416 0.974106 10.1781 1.81802C11.022 2.66193 11.4961 3.80653 11.4961 5Z" stroke="#7A7F85" stroke-linecap="round" stroke-linejoin="round"/>
<path d="M6.99609 6.5C7.82452 6.5 8.49609 5.82843 8.49609 5C8.49609 4.17157 7.82452 3.5 6.99609 3.5C6.16767 3.5 5.49609 4.17157 5.49609 5C5.49609 5.82843 6.16767 6.5 6.99609 6.5Z" stroke="#7A7F85" stroke-linecap="round" stroke-linejoin="round"/>
</svg>
