<svg width="13" height="12" viewBox="0 0 13 12" fill="none" xmlns="http://www.w3.org/2000/svg">
<g clip-path="url(#clip0_434_709)">
<path d="M5.49609 9.49997C2.99609 10.25 2.99609 8.24997 1.99609 7.99997M8.99609 11V9.06497C9.01485 8.82655 8.98264 8.58687 8.9016 8.36186C8.82056 8.13686 8.69256 7.93168 8.52609 7.75997C10.0961 7.58497 11.7461 6.98997 11.7461 4.25997C11.746 3.56188 11.4774 2.89057 10.9961 2.38497C11.224 1.77422 11.2079 1.09914 10.9511 0.499969C10.9511 0.499969 10.3611 0.324969 8.99609 1.23997C7.8501 0.92938 6.64209 0.92938 5.49609 1.23997C4.13109 0.324969 3.54109 0.499969 3.54109 0.499969C3.28428 1.09914 3.26817 1.77422 3.49609 2.38497C3.01116 2.89432 2.74236 3.5717 2.74609 4.27497C2.74609 6.98497 4.39609 7.57997 5.96609 7.77497C5.80159 7.94495 5.67473 8.14767 5.59375 8.36993C5.51277 8.59219 5.4795 8.829 5.49609 9.06497V11" stroke="#7A7F85" stroke-linecap="round" stroke-linejoin="round"/>
</g>
<defs>
<clipPath id="clip0_434_709">
<rect width="12" height="12" fill="white" transform="translate(0.996094)"/>
</clipPath>
</defs>
</svg>
