<svg width="13" height="12" viewBox="0 0 13 12" fill="none" xmlns="http://www.w3.org/2000/svg">
<g clip-path="url(#clip0_434_711)">
<path d="M8.99609 4C9.79174 4 10.5548 4.31607 11.1174 4.87868C11.68 5.44129 11.9961 6.20435 11.9961 7V10.5H9.99609V7C9.99609 6.73478 9.89074 6.48043 9.7032 6.29289C9.51566 6.10536 9.26131 6 8.99609 6C8.73088 6 8.47652 6.10536 8.28899 6.29289C8.10145 6.48043 7.99609 6.73478 7.99609 7V10.5H5.99609V7C5.99609 6.20435 6.31216 5.44129 6.87477 4.87868C7.43738 4.31607 8.20044 4 8.99609 4V4Z" stroke="#7A7F85" stroke-linecap="round" stroke-linejoin="round"/>
<path d="M3.99609 4.5H1.99609V10.5H3.99609V4.5Z" stroke="#7A7F85" stroke-linecap="round" stroke-linejoin="round"/>
<path d="M2.99609 3C3.54838 3 3.99609 2.55228 3.99609 2C3.99609 1.44772 3.54838 1 2.99609 1C2.44381 1 1.99609 1.44772 1.99609 2C1.99609 2.55228 2.44381 3 2.99609 3Z" stroke="#7A7F85" stroke-linecap="round" stroke-linejoin="round"/>
</g>
<defs>
<clipPath id="clip0_434_711">
<rect width="12" height="12" fill="white" transform="translate(0.996094)"/>
</clipPath>
</defs>
</svg>
