<svg width="24" height="24" viewBox="0 0 24 24" fill="none" xmlns="http://www.w3.org/2000/svg">
<path d="M15.78 15.7125C14.6922 16.5269 13.3676 16.978 12 17C7.54545 17 5 12 5 12C5.79157 10.5512 6.88945 9.28539 8.22 8.28751M10.6636 7.15002C11.1017 7.04932 11.5501 6.99898 12 7.00002C16.4545 7.00002 19 12 19 12C18.6137 12.7098 18.153 13.378 17.6255 13.9938M13.3491 13.325C13.1743 13.5092 12.9635 13.657 12.7294 13.7595C12.4952 13.8619 12.2424 13.917 11.9861 13.9215C11.7297 13.9259 11.4751 13.8796 11.2374 13.7853C10.9997 13.691 10.7837 13.5506 10.6024 13.3726C10.4212 13.1946 10.2782 12.9825 10.1822 12.749C10.0862 12.5155 10.0391 12.2655 10.0436 12.0137C10.0481 11.7619 10.1042 11.5137 10.2086 11.2837C10.3129 11.0537 10.4633 10.8467 10.6509 10.675" stroke="#676767" stroke-width="1.5" stroke-linecap="round" stroke-linejoin="round"/>
<path d="M5 5L19 19" stroke="#676767" stroke-width="1.5" stroke-linecap="round" stroke-linejoin="round"/>
</svg>
