<svg width="148" height="148" viewBox="0 0 148 148" fill="none" xmlns="http://www.w3.org/2000/svg">
<path fill-rule="evenodd" clip-rule="evenodd" d="M100.761 100.761C81.8312 119.691 61.6672 133.77 44.3848 141.239C35.7421 144.975 27.8447 147.046 21.1967 147.261C14.55 147.477 9.20215 145.836 5.57297 142.207C1.9438 138.578 0.303577 133.23 0.518655 126.583C0.733773 119.935 2.80557 112.038 6.54095 103.395C8.02638 99.9584 9.77319 96.4076 11.7675 92.7752C11.6999 92.5509 11.6334 92.3263 11.5681 92.1012C-0.69525 114.259 -3.85292 133.488 5.21942 142.561C20.2551 157.596 63.1887 139.04 101.114 101.114C139.04 63.1888 157.596 20.2551 142.561 5.21942C133.488 -3.85284 114.259 -0.69531 92.1019 11.5678C92.3269 11.633 92.5516 11.6995 92.7758 11.7672C96.408 9.77298 99.9586 8.02629 103.395 6.54096C112.038 2.80557 119.935 0.733767 126.583 0.518653C133.23 0.303578 138.578 1.9438 142.207 5.57297C145.836 9.20215 147.477 14.55 147.261 21.1967C147.046 27.8447 144.975 35.7422 141.239 44.3848C133.77 61.6672 119.691 81.8312 100.761 100.761Z" fill="url(#paint0_linear_903_7680)"/>
<defs>
<linearGradient id="paint0_linear_903_7680" x1="147.996" y1="147.995" x2="-0.00390351" y2="-0.00500619" gradientUnits="userSpaceOnUse">
<stop stop-color="white"/>
<stop offset="0.77279" stop-color="#9F9F9F" stop-opacity="0"/>
</linearGradient>
</defs>
</svg>
